<?xml version="1.0" encoding="UTF-8" standalone="no"?>
<!DOCTYPE svg PUBLIC "-//W3C//DTD SVG 1.1//EN" "http://www.w3.org/Graphics/SVG/1.1/DTD/svg11.dtd">
<svg width="100%" height="100%" viewBox="0 0 200 54" version="1.1" xmlns="http://www.w3.org/2000/svg" xmlns:xlink="http://www.w3.org/1999/xlink" xml:space="preserve" xmlns:serif="http://www.serif.com/" style="fill-rule:evenodd;clip-rule:evenodd;stroke-miterlimit:2;">
    <g transform="matrix(1.33333,0,0,1.33333,-185.954,-232.287)">
        <g transform="matrix(6.7407,0,0,2.6806,-5040.93,-596.065)">
            <g transform="matrix(0.0486289,0,0,0.122283,758.095,268.912)">
                <g transform="matrix(96,0,0,96,208.998,218.968)">
                    <path d="M0.186,0L0.192,-0.068L0.194,-0.068C0.229,-0.01 0.284,0.011 0.341,0.011C0.453,0.011 0.565,-0.077 0.565,-0.253C0.566,-0.403 0.48,-0.5 0.363,-0.5C0.295,-0.5 0.244,-0.473 0.215,-0.431L0.213,-0.431L0.213,-0.71L0.061,-0.71L0.061,-0.146C0.061,-0.091 0.059,-0.032 0.057,0L0.186,0ZM0.213,-0.28C0.213,-0.29 0.214,-0.299 0.216,-0.308C0.226,-0.352 0.264,-0.383 0.305,-0.383C0.376,-0.383 0.41,-0.323 0.41,-0.247C0.41,-0.159 0.37,-0.109 0.305,-0.109C0.261,-0.109 0.226,-0.14 0.216,-0.181C0.214,-0.189 0.213,-0.198 0.213,-0.208L0.213,-0.28Z" style="fill:rgb(35,64,201);fill-rule:nonzero;"/>
                </g>
                <g transform="matrix(96,0,0,96,266.406,218.968)">
                    <rect x="0.061" y="-0.71" width="0.152" height="0.71" style="fill:rgb(35,64,201);fill-rule:nonzero;"/>
                </g>
                <g transform="matrix(96,0,0,96,292.806,218.968)">
                    <path d="M0.294,-0.5C0.137,-0.5 0.033,-0.399 0.033,-0.241C0.033,-0.083 0.143,0.011 0.286,0.011C0.417,0.011 0.544,-0.071 0.544,-0.25C0.544,-0.397 0.444,-0.5 0.294,-0.5ZM0.29,-0.392C0.359,-0.392 0.387,-0.318 0.387,-0.245C0.387,-0.157 0.349,-0.098 0.29,-0.098C0.225,-0.098 0.19,-0.161 0.19,-0.245C0.19,-0.317 0.217,-0.392 0.29,-0.392Z" style="fill:rgb(35,64,201);fill-rule:nonzero;"/>
                </g>
                <g transform="matrix(96,0,0,96,348.486,218.968)">
                    <path d="M0.41,-0.124C0.387,-0.115 0.359,-0.109 0.323,-0.109C0.249,-0.109 0.189,-0.156 0.189,-0.246C0.188,-0.326 0.24,-0.383 0.32,-0.383C0.36,-0.383 0.387,-0.376 0.405,-0.368L0.429,-0.481C0.397,-0.493 0.353,-0.5 0.313,-0.5C0.131,-0.5 0.033,-0.383 0.033,-0.24C0.033,-0.086 0.134,0.01 0.292,0.01C0.35,0.01 0.401,0 0.428,-0.012L0.41,-0.124Z" style="fill:rgb(35,64,201);fill-rule:nonzero;"/>
                </g>
                <g transform="matrix(96,0,0,96,391.782,218.968)">
                    <path d="M0.213,-0.71L0.061,-0.71L0.061,0L0.213,0L0.213,-0.153L0.252,-0.201L0.37,0L0.557,0L0.357,-0.291L0.532,-0.489L0.349,-0.489L0.25,-0.342C0.238,-0.323 0.226,-0.303 0.215,-0.283L0.213,-0.283L0.213,-0.71Z" style="fill:rgb(35,64,201);fill-rule:nonzero;"/>
                </g>
                <g transform="matrix(96,0,0,96,442.47,218.968)">
                    <path d="M0.41,-0.124C0.387,-0.115 0.359,-0.109 0.323,-0.109C0.249,-0.109 0.189,-0.156 0.189,-0.246C0.188,-0.326 0.24,-0.383 0.32,-0.383C0.36,-0.383 0.387,-0.376 0.405,-0.368L0.429,-0.481C0.397,-0.493 0.353,-0.5 0.313,-0.5C0.131,-0.5 0.033,-0.383 0.033,-0.24C0.033,-0.086 0.134,0.01 0.292,0.01C0.35,0.01 0.401,0 0.428,-0.012L0.41,-0.124Z" style="fill:rgb(175,175,175);fill-rule:nonzero;"/>
                </g>
                <g transform="matrix(96,0,0,96,485.766,218.968)">
                    <path d="M0.061,0L0.213,0L0.213,-0.29C0.213,-0.301 0.214,-0.314 0.218,-0.324C0.229,-0.351 0.254,-0.377 0.294,-0.377C0.351,-0.377 0.373,-0.333 0.373,-0.269L0.373,0L0.525,0L0.525,-0.286C0.525,-0.433 0.451,-0.5 0.354,-0.5C0.326,-0.5 0.297,-0.493 0.275,-0.481C0.251,-0.468 0.231,-0.452 0.215,-0.431L0.213,-0.431L0.213,-0.71L0.061,-0.71L0.061,0Z" style="fill:rgb(175,175,175);fill-rule:nonzero;"/>
                </g>
                <g transform="matrix(96,0,0,96,542.022,218.968)">
                    <path d="M0.476,0C0.471,-0.027 0.469,-0.072 0.469,-0.119L0.469,-0.289C0.469,-0.404 0.417,-0.5 0.254,-0.5C0.165,-0.5 0.098,-0.476 0.064,-0.457L0.092,-0.359C0.124,-0.379 0.177,-0.396 0.227,-0.396C0.302,-0.396 0.316,-0.359 0.316,-0.333L0.316,-0.326C0.143,-0.327 0.029,-0.266 0.029,-0.139C0.029,-0.061 0.088,0.011 0.187,0.011C0.245,0.011 0.295,-0.01 0.327,-0.049L0.33,-0.049L0.339,0L0.476,0ZM0.321,-0.178C0.321,-0.169 0.32,-0.16 0.318,-0.152C0.308,-0.121 0.277,-0.096 0.239,-0.096C0.205,-0.096 0.179,-0.115 0.179,-0.154C0.179,-0.213 0.241,-0.232 0.321,-0.231L0.321,-0.178Z" style="fill:rgb(175,175,175);fill-rule:nonzero;"/>
                </g>
                <g transform="matrix(96,0,0,96,592.71,218.968)">
                    <path d="M0.213,0L0.213,-0.489L0.061,-0.489L0.061,0L0.213,0ZM0.137,-0.702C0.088,-0.702 0.056,-0.669 0.057,-0.625C0.056,-0.583 0.088,-0.549 0.136,-0.549C0.186,-0.549 0.218,-0.583 0.218,-0.625C0.217,-0.669 0.186,-0.702 0.137,-0.702Z" style="fill:rgb(175,175,175);fill-rule:nonzero;"/>
                </g>
                <g transform="matrix(96,0,0,96,619.014,218.968)">
                    <path d="M0.061,0L0.213,0L0.213,-0.282C0.213,-0.296 0.215,-0.311 0.219,-0.32C0.229,-0.348 0.254,-0.377 0.296,-0.377C0.351,-0.377 0.373,-0.334 0.373,-0.271L0.373,0L0.525,0L0.525,-0.29C0.525,-0.434 0.45,-0.5 0.35,-0.5C0.269,-0.5 0.219,-0.453 0.199,-0.422L0.196,-0.422L0.189,-0.489L0.057,-0.489C0.059,-0.446 0.061,-0.394 0.061,-0.333L0.061,0Z" style="fill:rgb(175,175,175);fill-rule:nonzero;"/>
                </g>
            </g>
        </g>
        <g transform="matrix(6.7407,0,0,2.6806,-5040.93,-596.065)">
            <g transform="matrix(0.0698618,0,0,0.175676,760.974,240.064)">
                <path d="M265.502,315.198L256.908,315.198C255.676,315.161 254.803,314.984 254.29,314.666C253.777,314.349 253.52,313.817 253.52,313.071C253.52,312.623 253.646,312.198 253.898,311.797C254.15,311.396 254.481,311.111 254.892,310.943C255.34,310.719 256.189,310.607 257.44,310.607L272.193,310.607C273.126,310.607 273.794,310.761 274.195,311.069C274.596,311.377 274.797,311.867 274.797,312.539C274.797,312.987 274.652,313.388 274.363,313.743C274.074,314.097 273.537,314.517 272.753,315.002C271.577,315.73 270.574,316.439 269.744,317.13C268.913,317.821 268.148,318.553 267.448,319.328C266.748,320.102 266.081,320.984 265.446,321.973C264.439,323.485 263.627,325.137 263.011,326.928C262.395,328.72 262.087,330.297 262.087,331.66C262.087,333.545 262.609,335.094 263.655,336.307C264.7,337.52 266.034,338.127 267.658,338.127C269.562,338.127 271.549,337.469 273.621,336.153C275.693,334.837 277.596,333.078 279.332,330.876C281.068,328.674 282.454,326.275 283.489,323.681C284.525,321.087 285.043,318.576 285.043,316.15C285.043,313.985 284.488,312.277 283.377,311.027C282.267,309.777 280.779,309.151 278.912,309.151C278.091,309.151 277.148,309.282 276.085,309.543C275.581,309.655 275.123,309.711 274.713,309.711C274.209,309.711 273.775,309.506 273.411,309.095C273.047,308.685 272.865,308.209 272.865,307.668C272.865,306.66 273.42,305.867 274.531,305.288C275.641,304.709 277.139,304.42 279.024,304.42C280.629,304.42 282.104,304.7 283.447,305.26C284.791,305.82 285.948,306.646 286.919,307.738C287.889,308.829 288.631,310.122 289.145,311.615C289.658,313.108 289.914,314.75 289.914,316.542C289.914,318.632 289.546,320.858 288.809,323.219C288.071,325.58 287.022,327.876 285.659,330.106C284.297,332.336 282.72,334.347 280.928,336.139C276.635,340.469 272.119,342.634 267.378,342.634C265.325,342.634 263.533,342.209 262.003,341.36C260.472,340.511 259.301,339.289 258.489,337.693C257.678,336.097 257.272,334.226 257.272,332.08C257.272,329 258.042,325.897 259.581,322.771C261.121,319.645 263.095,317.121 265.502,315.198Z" style="fill:rgb(102,204,51);fill-rule:nonzero;stroke:rgb(102,204,51);stroke-width:1.06px;"/>
                <path d="M295.85,322.001L299.937,313.183C300.478,312.026 300.945,311.26 301.337,310.887C301.729,310.514 302.242,310.327 302.876,310.327C303.492,310.327 304.001,310.514 304.402,310.887C304.803,311.26 305.004,311.746 305.004,312.343C305.004,312.791 304.752,313.547 304.248,314.61L300.805,322.001L305.788,322.001C307.001,322.001 307.85,322.146 308.336,322.435C308.821,322.724 309.063,323.214 309.063,323.905C309.063,324.838 308.653,325.501 307.832,325.893C307.402,326.098 306.562,326.201 305.312,326.201L300.665,326.201C302.158,329.019 302.904,331.874 302.904,334.767C302.904,337.063 302.484,339.368 301.645,341.682C300.805,343.996 299.704,346.063 298.341,347.883C296.979,349.703 295.434,351.173 293.708,352.292C291.981,353.412 290.278,353.972 288.599,353.972C287.199,353.972 286.046,353.548 285.141,352.698C284.236,351.849 283.783,350.771 283.783,349.465C283.783,348.812 283.886,348.163 284.091,347.519C284.297,346.875 284.735,345.816 285.407,344.342L293.89,326.201L292.294,326.201C291.1,326.201 290.297,326.079 289.886,325.837C289.289,325.482 288.991,324.95 288.991,324.241C288.991,323.849 289.103,323.471 289.327,323.107C289.551,322.743 289.858,322.468 290.25,322.281C290.698,322.095 291.538,322.001 292.77,322.001L295.85,322.001ZM297.193,329.756L289.97,345.266C289.392,346.497 289.033,347.305 288.893,347.687C288.753,348.07 288.683,348.382 288.683,348.625C288.683,349.185 288.953,349.465 289.495,349.465C290.39,349.465 291.604,348.625 293.134,346.945C294.646,345.247 295.864,343.264 296.787,340.996C297.711,338.729 298.173,336.596 298.173,334.599C298.173,333.778 298.098,332.99 297.949,332.234C297.8,331.478 297.548,330.652 297.193,329.756Z" style="fill:rgb(102,204,51);fill-rule:nonzero;stroke:rgb(102,204,51);stroke-width:1.06px;"/>
                <path d="M342.378,309.655L328.436,339.554C327.895,340.749 327.405,341.561 326.967,341.99C326.528,342.419 325.973,342.634 325.301,342.634C324.648,342.634 324.102,342.424 323.663,342.004C323.224,341.584 323.005,341.066 323.005,340.45C323.005,339.946 323.266,339.135 323.789,338.015L337.031,309.655L330.788,309.655C329.425,309.655 328.502,309.515 328.016,309.235C327.344,308.825 327.009,308.218 327.009,307.416C327.009,306.333 327.484,305.577 328.436,305.148C328.922,304.905 329.892,304.784 331.348,304.784L351.253,304.784C352.634,304.784 353.558,304.924 354.024,305.204C354.715,305.633 355.06,306.24 355.06,307.024C355.06,308.069 354.584,308.825 353.632,309.291C353.091,309.534 352.121,309.655 350.721,309.655L342.378,309.655Z" style="fill:rgb(102,204,51);fill-rule:nonzero;stroke:rgb(102,204,51);stroke-width:1.06px;"/>
                <path d="M347.249,323.401C348.798,322.207 350.366,321.609 351.953,321.609C353.11,321.609 354.043,321.945 354.752,322.617C355.461,323.289 355.816,324.176 355.816,325.277C355.816,326.639 355.293,328.366 354.248,330.456L352.988,332.948L351.841,335.243C351.411,336.102 351.197,336.708 351.197,337.063C351.197,337.697 351.486,338.015 352.065,338.015C352.345,338.015 352.652,337.94 352.988,337.791C353.324,337.641 353.754,337.389 354.276,337.035C354.799,336.68 355.545,336.111 356.516,335.327C357.505,334.562 358.191,334.072 358.574,333.857C358.956,333.643 359.353,333.535 359.763,333.535C360.249,333.535 360.669,333.713 361.023,334.067C361.378,334.422 361.555,334.842 361.555,335.327C361.555,336.13 360.986,337.035 359.847,338.043C358.821,338.939 357.738,339.736 356.6,340.436C355.461,341.136 354.365,341.677 353.31,342.06C352.256,342.443 351.327,342.634 350.525,342.634C349.218,342.634 348.155,342.237 347.333,341.444C346.512,340.651 346.102,339.62 346.102,338.351C346.102,337.66 346.297,336.774 346.689,335.691C347.025,334.721 347.903,332.864 349.321,330.12C350.161,328.459 350.581,327.451 350.581,327.096C350.581,326.574 350.31,326.313 349.769,326.313C349.209,326.313 348.416,326.616 347.389,327.222C346.363,327.829 345.383,328.543 344.45,329.364L339.607,339.778C339.233,340.6 338.921,341.192 338.669,341.556C338.417,341.92 338.113,342.195 337.759,342.382C337.479,342.494 337.171,342.578 336.835,342.634L336.667,342.634C336.088,342.634 335.594,342.438 335.183,342.046C334.773,341.654 334.567,341.169 334.567,340.59C334.567,340.161 334.819,339.414 335.323,338.351L347.053,313.183C347.613,312.007 348.08,311.237 348.453,310.873C348.826,310.509 349.33,310.327 349.965,310.327C350.581,310.327 351.089,310.514 351.491,310.887C351.892,311.26 352.093,311.746 352.093,312.343C352.093,312.791 351.841,313.547 351.337,314.61L347.249,323.401Z" style="fill:rgb(102,204,51);fill-rule:nonzero;stroke:rgb(102,204,51);stroke-width:1.06px;"/>
                <path d="M357.664,333.675L361.975,324.465C362.516,323.308 362.978,322.543 363.361,322.169C363.743,321.796 364.252,321.609 364.887,321.609C365.484,321.609 365.988,321.796 366.398,322.169C366.809,322.543 367.014,323.028 367.014,323.625C367.014,324.092 366.762,324.847 366.258,325.893L361.891,335.299C361.518,336.102 361.331,336.68 361.331,337.035C361.331,337.632 361.62,337.931 362.199,337.931C363.001,337.931 364.504,337.063 366.706,335.327C367.583,334.618 368.246,334.137 368.694,333.885C369.142,333.633 369.524,333.507 369.842,333.507C370.346,333.507 370.775,333.685 371.13,334.039C371.484,334.394 371.661,334.833 371.661,335.355C371.661,336.27 370.794,337.427 369.058,338.827C365.885,341.365 363.085,342.634 360.659,342.634C359.334,342.634 358.27,342.242 357.468,341.458C356.665,340.674 356.264,339.666 356.264,338.435C356.264,337.837 356.385,337.138 356.628,336.335C356.87,335.532 357.216,334.646 357.664,333.675ZM370.122,317.662C370.122,318.576 369.856,319.346 369.324,319.972C368.792,320.597 368.087,320.909 367.21,320.909C366.482,320.909 365.89,320.671 365.432,320.196C364.975,319.72 364.747,319.108 364.747,318.362C364.747,317.429 365.022,316.673 365.572,316.094C366.123,315.516 366.818,315.226 367.658,315.226C368.367,315.226 368.955,315.45 369.422,315.898C369.888,316.346 370.122,316.934 370.122,317.662Z" style="fill:rgb(102,204,51);fill-rule:nonzero;stroke:rgb(102,204,51);stroke-width:1.06px;"/>
                <path d="M377.485,323.765C378.063,323.186 378.856,322.682 379.864,322.253C380.872,321.824 381.777,321.609 382.58,321.609C383.737,321.609 384.675,321.945 385.393,322.617C386.112,323.289 386.471,324.176 386.471,325.277C386.471,326.677 385.948,328.403 384.903,330.456L383.644,332.948L382.496,335.243C382.066,336.083 381.852,336.69 381.852,337.063C381.852,337.697 382.141,338.015 382.72,338.015C383,338.015 383.308,337.94 383.644,337.791C383.979,337.641 384.409,337.389 384.931,337.035C385.454,336.68 386.2,336.111 387.171,335.327C388.16,334.562 388.841,334.072 389.215,333.857C389.588,333.643 389.98,333.535 390.39,333.535C390.894,333.535 391.324,333.713 391.678,334.067C392.033,334.422 392.21,334.851 392.21,335.355C392.21,336.326 391.314,337.483 389.523,338.827C386.238,341.365 383.457,342.634 381.18,342.634C379.892,342.634 378.833,342.242 378.002,341.458C377.172,340.674 376.757,339.638 376.757,338.351C376.757,337.679 376.953,336.783 377.345,335.663C377.699,334.73 378.576,332.882 379.976,330.12C380.816,328.459 381.236,327.451 381.236,327.096C381.236,326.574 380.965,326.313 380.424,326.313C379.901,326.313 379.132,326.607 378.114,327.194C377.097,327.782 376.103,328.506 375.133,329.364L370.262,339.778C369.702,340.954 369.24,341.724 368.876,342.088C368.512,342.452 368.003,342.634 367.35,342.634C366.734,342.634 366.226,342.443 365.824,342.06C365.423,341.677 365.222,341.188 365.222,340.59C365.222,340.161 365.474,339.405 365.978,338.323L372.445,324.465C372.968,323.345 373.425,322.589 373.817,322.197C374.209,321.805 374.722,321.609 375.357,321.609C375.991,321.609 376.505,321.791 376.897,322.155C377.289,322.519 377.485,322.99 377.485,323.569L377.485,323.765Z" style="fill:rgb(102,204,51);fill-rule:nonzero;stroke:rgb(102,204,51);stroke-width:1.06px;"/>
                <path d="M397.473,337.427L400.609,330.708L401.113,329.644C401.542,328.786 401.967,328.184 402.387,327.838C402.806,327.493 403.334,327.32 403.968,327.32C404.547,327.32 405.004,327.479 405.34,327.796C405.676,328.114 405.844,328.571 405.844,329.168C405.844,329.373 405.741,329.793 405.536,330.428C405.219,331.361 405.013,331.912 404.92,332.08L402.736,336.755L402.345,337.567C402.046,338.257 401.897,338.761 401.897,339.079C401.897,339.377 402.139,339.853 402.625,340.506C403.446,341.626 403.856,342.755 403.856,343.894C403.856,345.126 403.52,346.259 402.848,347.295C402.177,348.331 401.29,349.12 400.189,349.661C399.424,350.053 398.523,350.323 397.487,350.473C396.451,350.622 394.898,350.697 392.826,350.697L384.315,350.697C383.606,350.697 383.084,350.669 382.748,350.613C382.412,350.557 382.113,350.454 381.852,350.305C381.255,349.969 380.956,349.437 380.956,348.709C380.956,348.317 381.068,347.934 381.292,347.561C381.516,347.188 381.824,346.908 382.216,346.721C382.645,346.516 383.504,346.413 384.791,346.413L392.966,346.413C395.112,346.413 396.647,346.231 397.571,345.867C398.495,345.504 398.957,344.902 398.957,344.062C398.957,343.409 398.733,342.951 398.285,342.69C397.837,342.429 397.025,342.298 395.85,342.298L393.806,342.298C391.828,342.298 390.311,341.817 389.257,340.856C388.202,339.895 387.675,338.509 387.675,336.699C387.675,335.766 387.843,334.795 388.179,333.787C388.515,332.78 388.972,331.804 389.551,330.862C390.129,329.919 390.852,328.995 391.72,328.09C392.588,327.185 393.582,326.322 394.702,325.501C396.419,324.25 398.355,323.228 400.511,322.435C402.667,321.642 404.556,321.245 406.18,321.245C406.889,321.245 407.458,321.427 407.888,321.791C408.317,322.155 408.532,322.645 408.532,323.261C408.532,324.288 407.878,324.959 406.572,325.277L404.752,325.697C401.505,326.425 398.77,327.74 396.549,329.644C395.374,330.652 394.408,331.739 393.652,332.906C392.896,334.072 392.518,335.113 392.518,336.027C392.518,336.587 392.723,337.072 393.134,337.483C393.545,337.893 394.058,338.099 394.674,338.099C395.42,338.099 396.354,337.875 397.473,337.427Z" style="fill:rgb(102,204,51);fill-rule:nonzero;stroke:rgb(102,204,51);stroke-width:1.06px;"/>
                <path d="M417.35,327.992L416.818,329.112C416.277,330.251 415.815,331.011 415.432,331.394C415.05,331.776 414.541,331.968 413.907,331.968C413.291,331.968 412.782,331.776 412.381,331.394C411.98,331.011 411.779,330.521 411.779,329.924C411.779,329.495 412.031,328.748 412.535,327.684L415.838,320.573C416.268,319.64 416.604,318.987 416.846,318.614C417.089,318.241 417.346,317.984 417.616,317.844C417.887,317.704 418.237,317.634 418.666,317.634C419.319,317.634 419.846,317.816 420.248,318.18C420.649,318.544 420.85,319.043 420.85,319.678C420.85,319.939 420.822,320.144 420.766,320.294L420.43,321.469C420.336,321.749 420.29,322.076 420.29,322.449C420.29,322.953 420.369,323.457 420.528,323.961C420.686,324.465 421.055,325.361 421.633,326.649C422.156,327.787 422.679,329.065 423.201,330.484C423.742,331.996 424.013,333.311 424.013,334.431C424.013,335.924 423.654,337.306 422.935,338.575C422.217,339.844 421.232,340.838 419.982,341.556C418.731,342.275 417.35,342.634 415.838,342.634C414.495,342.634 413.23,342.331 412.045,341.724C410.86,341.118 409.899,340.306 409.161,339.289C408.424,338.271 408.056,337.222 408.056,336.139C408.056,335.355 408.284,334.716 408.742,334.221C409.199,333.727 409.782,333.479 410.491,333.479C411.443,333.479 412.087,333.955 412.423,334.907L412.843,336.083C413.384,337.595 414.327,338.351 415.67,338.351C416.734,338.351 417.607,337.991 418.288,337.273C418.969,336.554 419.31,335.682 419.31,334.655C419.31,333.778 418.806,332.061 417.798,329.504C417.574,328.907 417.425,328.403 417.35,327.992Z" style="fill:rgb(102,204,51);fill-rule:nonzero;stroke:rgb(102,204,51);stroke-width:1.06px;"/>
            </g>
        </g>
    </g>
</svg>
